<svg xmlns="http://www.w3.org/2000/svg" version="1.1" xmlns:xlink="http://www.w3.org/1999/xlink" xmlns:svgjs="http://svgjs.com/svgjs" width="2000" height="1020" preserveAspectRatio="none" viewBox="0 0 2000 1020"><g mask="url(&quot;#SvgjsMask2128&quot;)" fill="none"><rect width="2000" height="1020" x="0" y="0" fill="url(#SvgjsLinearGradient2129)"></rect><path d="M2000 0L1226.96 0L2000 244.39z" fill="rgba(255, 255, 255, .1)"></path><path d="M1226.96 0L2000 244.39L2000 476.28999999999996L868.8 0z" fill="rgba(255, 255, 255, .075)"></path><path d="M868.8 0L2000 476.28999999999996L2000 721.55L345.12 0z" fill="rgba(255, 255, 255, .05)"></path><path d="M345.1199999999999 0L2000 721.55L2000 739.43L220.9599999999999 0z" fill="rgba(255, 255, 255, .025)"></path><path d="M0 1020L254.08 1020L0 842.27z" fill="rgba(0, 0, 0, .1)"></path><path d="M0 842.27L254.08 1020L477.74 1020L0 440.27z" fill="rgba(0, 0, 0, .075)"></path><path d="M0 440.27L477.74 1020L1205.75 1020L0 367.07z" fill="rgba(0, 0, 0, .05)"></path><path d="M0 367.06999999999994L1205.75 1020L1659.51 1020L0 367.03999999999996z" fill="rgba(0, 0, 0, .025)"></path></g><defs><mask id="SvgjsMask2128"><rect width="2000" height="1020" fill="#ffffff"></rect></mask><linearGradient x1="12.25%" y1="-24.02%" x2="87.75%" y2="124.02%" gradientUnits="userSpaceOnUse" id="SvgjsLinearGradient2129"><stop stop-color="rgba(71, 14, 65, 1)" offset="0.27"></stop><stop stop-color="rgba(31, 14, 71, 1)" offset="0.92"></stop></linearGradient></defs></svg>