<svg version="1.2" xmlns="http://www.w3.org/2000/svg" viewBox="0 0 512 512" width="512" height="512">
	<title>tiktok-svg</title>
	<style>
		.s0 { fill: #ffffff } 
	</style>
	<g id="Layer">
		<path id="Layer" class="s0" d="m266.9 17h38.3 38.5l1 7.7c3.6 28 12.4 49.4 27.8 68.1 20 24.2 49.8 39.8 82.2 43l10.3 1.2v38.6 38.7l-15.4-1c-8.5-0.7-19.6-2.1-24.7-3.1-22.3-4.6-50.8-16.7-69.9-29.7-5.1-3.6-9.7-6.3-10.2-6.3-0.3 0-0.6 43.2-0.4 96 0.3 95.3 0.3 96.5-3.5 111-13.6 53.4-54.5 95-107.5 109.1-19.7 5-48.2 5.9-68 1.8-59.1-12.1-104.9-57.3-117-115.1-3.3-15.1-3.1-44.2 0.1-60.1 2.8-13.9 10.5-33.2 19-47.3 7.2-12 27.2-33.4 39.6-42.2 28.5-20.2 67.3-31.1 99.2-27.9l11.5 1.2v39.8 39.7l-6-1.6c-3.5-1-12.8-1.3-21-1-18.7 0.8-32.7 7.1-45.5 20.2-40.8 41.4-17.7 110.1 40.1 119.1 37.6 5.9 74.3-21.7 79.9-60.2 1-6.9 1.6-76.1 1.6-175.7z"/>
	</g>
</svg>