<svg version="1.2" xmlns="http://www.w3.org/2000/svg" viewBox="0 0 512 512" width="512" height="512">
	<title>tiktok-svg</title>
	<style>
		.s0 { fill: #ffffff } 
	</style>
	<g id="Layer">
		<path id="Layer" class="s0" d="m263 110h23.4 23.5l0.6 4.7c2.2 17.1 7.6 30.2 17 41.6 12.2 14.8 30.4 24.3 50.2 26.3l6.3 0.7v23.6 23.6l-9.4-0.6c-5.2-0.4-12-1.3-15.1-1.9-13.6-2.8-31-10.2-42.7-18.1-3.1-2.2-5.9-3.9-6.2-3.9-0.2 0-0.4 26.4-0.3 58.7 0.2 58.2 0.2 58.9-2.1 67.8-8.3 32.6-33.3 58-65.7 66.6-12 3.1-29.4 3.6-41.5 1.1-36.1-7.4-64.1-35-71.5-70.3-2-9.2-1.9-27 0.1-36.7 1.7-8.5 6.4-20.3 11.6-28.9 4.4-7.3 16.6-20.4 24.2-25.8 17.4-12.3 41.1-19 60.6-17l7 0.7v24.3 24.3l-3.7-1c-2.1-0.6-7.8-0.8-12.8-0.6-11.4 0.5-20 4.3-27.8 12.3-24.9 25.3-10.8 67.3 24.5 72.8 23 3.6 45.4-13.3 48.8-36.8 0.6-4.2 1-46.5 1-107.3z"/>
	</g>
</svg>